<svg xmlns="http://www.w3.org/2000/svg" width="1320" height="760" viewBox="0 0 1320 760" role="img" aria-labelledby="title desc">
<title id="title">Enterprise Cloud Platform Program</title>
<desc id="desc">Single enterprise delivery model across architecture, DevSecOps, cloud, Kubernetes, SRE, governance, and Jenkins automation</desc>
<defs>
<marker id="arrow" markerWidth="12" markerHeight="12" refX="10" refY="6" orient="auto" markerUnits="strokeWidth"><path d="M2,2 L10,6 L2,10 Z" fill="#111827"/></marker>
<filter id="softShadow" x="-10%" y="-10%" width="120%" height="120%"><feDropShadow dx="0" dy="2" stdDeviation="2" flood-color="#000000" flood-opacity="0.12"/></filter>
</defs>
<rect x="1" y="1" width="1318" height="758" fill="#ffffff" stroke="#111827" stroke-width="2"/>
<rect x="20" y="18" width="48" height="48" fill="#232f3e"/>
<text x="44" y="39" text-anchor="middle" font-size="15" font-weight="700" fill="#ffffff">AWS</text>
<text x="82" y="42" font-size="18" fill="#111827">Enterprise Cloud Platform</text>
<rect x="160" y="66" width="1110" height="616" rx="0" fill="none" stroke="#7c4dff" stroke-width="2"/>
<rect x="160" y="66" width="44" height="44" fill="#7c4dff"/>
<path d="M174 91c0-8 6-14 14-14 5 0 10 3 12 7 7 0 12 5 12 12s-5 12-12 12h-25c-7 0-12-5-12-11s5-11 11-11z" fill="none" stroke="#ffffff" stroke-width="2"/>
<text x="218" y="91" font-size="18" fill="#111827">GitLab Enterprise Program Boundary</text>
<rect x="20" y="300" width="224" height="285" rx="0" fill="#ffffff" stroke="#f43f5e" stroke-width="2"/>
<rect x="20" y="300" width="48" height="48" fill="#e11d48"/>
<text x="82" y="329" font-size="17" fill="#111827">Stakeholders</text>
<rect x="52" y="360" width="38" height="30" rx="2" fill="#ffffff" stroke="#111827" stroke-width="2"/>
<text x="102" y="382" font-size="14" fill="#111827">App Teams</text>
<rect x="52" y="402" width="38" height="30" rx="2" fill="#ffffff" stroke="#111827" stroke-width="2"/>
<text x="102" y="424" font-size="14" fill="#111827">Platform Teams</text>
<rect x="52" y="444" width="38" height="30" rx="2" fill="#ffffff" stroke="#111827" stroke-width="2"/>
<text x="102" y="466" font-size="14" fill="#111827">Security/Audit</text>
<rect x="52" y="486" width="38" height="30" rx="2" fill="#ffffff" stroke="#111827" stroke-width="2"/>
<text x="102" y="508" font-size="14" fill="#111827">SRE/Ops</text>
<rect x="325" y="105" width="425" height="202" rx="0" fill="#ffffff" stroke="#e5177e" stroke-width="2"/>
<rect x="325" y="105" width="44" height="44" fill="#e5177e"/>
<text x="383" y="135" font-size="17" fill="#111827">Program Docs</text>
<rect x="381" y="175" width="158" height="86" rx="3" fill="#ffffff" stroke="#cbd5e1" stroke-width="1.5"/>
<rect x="381" y="175" width="44" height="44" fill="#e5177e"/>
<rect x="393" y="187" width="20" height="20" rx="3" fill="none" stroke="#ffffff" stroke-width="2"/>
<path d="M399 197h8M399 203h12" stroke="#ffffff" stroke-width="2"/>
<text x="435" y="200" font-size="14" fill="#111827" font-weight="700">
<tspan x="435" dy="0">Architecture Docs</tspan>
</text>
<text x="393" y="238" font-size="11" fill="#475569" font-weight="400">
<tspan x="393" dy="0">strategy, diagrams,</tspan>
<tspan x="393" dy="15">training</tspan>
</text>
<rect x="559" y="175" width="158" height="86" rx="3" fill="#ffffff" stroke="#cbd5e1" stroke-width="1.5"/>
<rect x="559" y="175" width="44" height="44" fill="#e5177e"/>
<rect x="571" y="187" width="20" height="20" rx="3" fill="none" stroke="#ffffff" stroke-width="2"/>
<path d="M577 197h8M577 203h12" stroke="#ffffff" stroke-width="2"/>
<text x="613" y="200" font-size="14" fill="#111827" font-weight="700">
<tspan x="613" dy="0">Interview Banks</tspan>
</text>
<text x="571" y="238" font-size="11" fill="#475569" font-weight="400">
<tspan x="571" dy="0">MAAS role readiness</tspan>
</text>
<rect x="545" y="355" width="332" height="250" rx="0" fill="#ffffff" stroke="#7c4dff" stroke-width="2"/>
<rect x="545" y="355" width="44" height="44" fill="#7c4dff"/>
<text x="603" y="385" font-size="17" fill="#111827">Delivery Control Plane</text>
<rect x="601" y="425" width="158" height="86" rx="3" fill="#ffffff" stroke="#cbd5e1" stroke-width="1.5"/>
<rect x="601" y="425" width="44" height="44" fill="#7c4dff"/>
<rect x="613" y="437" width="20" height="20" rx="3" fill="none" stroke="#ffffff" stroke-width="2"/>
<path d="M619 447h8M619 453h12" stroke="#ffffff" stroke-width="2"/>
<text x="655" y="450" font-size="14" fill="#111827" font-weight="700">
<tspan x="655" dy="0">Merge Requests</tspan>
</text>
<text x="613" y="488" font-size="11" fill="#475569" font-weight="400">
<tspan x="613" dy="0">review and approval</tspan>
</text>
<rect x="779" y="425" width="158" height="86" rx="3" fill="#ffffff" stroke="#cbd5e1" stroke-width="1.5"/>
<rect x="779" y="425" width="44" height="44" fill="#7c4dff"/>
<rect x="791" y="437" width="20" height="20" rx="3" fill="none" stroke="#ffffff" stroke-width="2"/>
<path d="M797 447h8M797 453h12" stroke="#ffffff" stroke-width="2"/>
<text x="833" y="450" font-size="14" fill="#111827" font-weight="700">
<tspan x="833" dy="0">Protected Main</tspan>
</text>
<text x="791" y="488" font-size="11" fill="#475569" font-weight="400">
<tspan x="791" dy="0">release source of truth</tspan>
</text>
<rect x="601" y="517" width="158" height="86" rx="3" fill="#ffffff" stroke="#cbd5e1" stroke-width="1.5"/>
<rect x="601" y="517" width="44" height="44" fill="#7c4dff"/>
<rect x="613" y="529" width="20" height="20" rx="3" fill="none" stroke="#ffffff" stroke-width="2"/>
<path d="M619 539h8M619 545h12" stroke="#ffffff" stroke-width="2"/>
<text x="655" y="542" font-size="14" fill="#111827" font-weight="700">
<tspan x="655" dy="0">Jenkins + AWX</tspan>
</text>
<text x="613" y="580" font-size="11" fill="#475569" font-weight="400">
<tspan x="613" dy="0">automation execution</tspan>
</text>
<rect x="870" y="105" width="332" height="202" rx="0" fill="#ffffff" stroke="#00a88f" stroke-width="2"/>
<rect x="870" y="105" width="44" height="44" fill="#00a88f"/>
<text x="928" y="135" font-size="17" fill="#111827">Platform Repositories</text>
<rect x="926" y="175" width="158" height="86" rx="3" fill="#ffffff" stroke="#cbd5e1" stroke-width="1.5"/>
<rect x="926" y="175" width="44" height="44" fill="#00a88f"/>
<rect x="938" y="187" width="20" height="20" rx="3" fill="none" stroke="#ffffff" stroke-width="2"/>
<path d="M944 197h8M944 203h12" stroke="#ffffff" stroke-width="2"/>
<text x="980" y="200" font-size="14" fill="#111827" font-weight="700">
<tspan x="980" dy="0">DevSecOps</tspan>
</text>
<text x="938" y="238" font-size="11" fill="#475569" font-weight="400">
<tspan x="938" dy="0">build, scan, deploy</tspan>
</text>
<rect x="1104" y="175" width="158" height="86" rx="3" fill="#ffffff" stroke="#cbd5e1" stroke-width="1.5"/>
<rect x="1104" y="175" width="44" height="44" fill="#00a88f"/>
<rect x="1116" y="187" width="20" height="20" rx="3" fill="none" stroke="#ffffff" stroke-width="2"/>
<path d="M1122 197h8M1122 203h12" stroke="#ffffff" stroke-width="2"/>
<text x="1158" y="200" font-size="14" fill="#111827" font-weight="700">
<tspan x="1158" dy="0">Cloud Infra</tspan>
</text>
<text x="1116" y="238" font-size="11" fill="#475569" font-weight="400">
<tspan x="1116" dy="0">Terraform and Ansible</tspan>
</text>
<rect x="926" y="267" width="158" height="86" rx="3" fill="#ffffff" stroke="#cbd5e1" stroke-width="1.5"/>
<rect x="926" y="267" width="44" height="44" fill="#00a88f"/>
<rect x="938" y="279" width="20" height="20" rx="3" fill="none" stroke="#ffffff" stroke-width="2"/>
<path d="M944 289h8M944 295h12" stroke="#ffffff" stroke-width="2"/>
<text x="980" y="292" font-size="14" fill="#111827" font-weight="700">
<tspan x="980" dy="0">Kubernetes GitOps</tspan>
</text>
<text x="938" y="330" font-size="11" fill="#475569" font-weight="400">
<tspan x="938" dy="0">cluster desired state</tspan>
</text>
<rect x="1104" y="267" width="158" height="86" rx="3" fill="#ffffff" stroke="#cbd5e1" stroke-width="1.5"/>
<rect x="1104" y="267" width="44" height="44" fill="#00a88f"/>
<rect x="1116" y="279" width="20" height="20" rx="3" fill="none" stroke="#ffffff" stroke-width="2"/>
<path d="M1122 289h8M1122 295h12" stroke="#ffffff" stroke-width="2"/>
<text x="1158" y="292" font-size="14" fill="#111827" font-weight="700">
<tspan x="1158" dy="0">Observability/SRE</tspan>
</text>
<text x="1116" y="330" font-size="11" fill="#475569" font-weight="400">
<tspan x="1116" dy="0">signals and incidents</tspan>
</text>
<line x1="245" y1="382" x2="424" y2="382" stroke="#111827" stroke-width="2.4" marker-end="url(#arrow)"/>
<circle cx="334.5" cy="382.0" r="17" fill="#000000"/>
<text x="334.5" y="387.0" text-anchor="middle" font-size="16" font-weight="700" fill="#ffffff">1</text>
<text x="360.5" y="387.0" font-size="11" fill="#111827">request</text>
<line x1="642" y1="382" x2="760" y2="265" stroke="#111827" stroke-width="2.4" marker-end="url(#arrow)"/>
<circle cx="701.0" cy="323.5" r="17" fill="#000000"/>
<text x="701.0" y="328.5" text-anchor="middle" font-size="16" font-weight="700" fill="#ffffff">2</text>
<text x="727.0" y="328.5" font-size="11" fill="#111827">review</text>
<line x1="760" y1="415" x2="888" y2="415" stroke="#111827" stroke-width="2.4" marker-end="url(#arrow)"/>
<circle cx="824.0" cy="415.0" r="17" fill="#000000"/>
<text x="824.0" y="420.0" text-anchor="middle" font-size="16" font-weight="700" fill="#ffffff">3</text>
<text x="850.0" y="420.0" font-size="11" fill="#111827">automate</text>
<line x1="1068" y1="398" x2="1135" y2="508" stroke="#111827" stroke-width="2.4" marker-end="url(#arrow)"/>
<circle cx="1101.5" cy="453.0" r="17" fill="#000000"/>
<text x="1101.5" y="458.0" text-anchor="middle" font-size="16" font-weight="700" fill="#ffffff">4</text>
<text x="1127.5" y="458.0" font-size="11" fill="#111827">provision/sync</text>
<line x1="1135" y1="570" x2="980" y2="570" stroke="#111827" stroke-width="2.4" marker-end="url(#arrow)"/>
<circle cx="1057.5" cy="570.0" r="17" fill="#000000"/>
<text x="1057.5" y="575.0" text-anchor="middle" font-size="16" font-weight="700" fill="#ffffff">5</text>
<text x="1083.5" y="575.0" font-size="11" fill="#111827">observe/control</text>
<line x1="570" y1="610" x2="245" y2="610" stroke="#111827" stroke-width="2.4" marker-end="url(#arrow)"/>
<circle cx="407.5" cy="610.0" r="17" fill="#000000"/>
<text x="407.5" y="615.0" text-anchor="middle" font-size="16" font-weight="700" fill="#ffffff">6</text>
<text x="433.5" y="615.0" font-size="11" fill="#111827">evidence</text>
<text x="162" y="715" font-size="12" fill="#475569">Numbered arrows show the primary delivery or operations flow. Colored boxes group related platform components.</text>
</svg>